<?xml version="1.0" encoding="UTF-8" standalone="no"?>
<!DOCTYPE svg PUBLIC "-//W3C//DTD SVG 1.1//EN"
 "http://www.w3.org/Graphics/SVG/1.1/DTD/svg11.dtd">
<!-- Generated by graphviz version 2.43.0 (0)
 -->
<!-- Title: %3 Pages: 1 -->
<svg width="1376pt" height="238pt"
 viewBox="0.00 0.00 1376.00 237.74" xmlns="http://www.w3.org/2000/svg" xmlns:xlink="http://www.w3.org/1999/xlink">
<g id="graph0" class="graph" transform="scale(1 1) rotate(0) translate(36 201.74)">
<title>%3</title>
<polygon fill="dimgray" stroke="transparent" points="-36,36 -36,-201.74 1340,-201.74 1340,36 -36,36"/>
<text text-anchor="middle" x="652" y="-150.54" font-family="Helvetica,sans-Serif" font-size="14.00">Sweep&#39;s Plan &amp; Progress</text>
<!-- start -->
<g id="node1" class="node">
<title>start</title>
</g>
<!-- 76786c69&#45;4e26&#45;43df&#45;a961&#45;b73dec879777 -->
<g id="node3" class="node">
<title>76786c69&#45;4e26&#45;43df&#45;a961&#45;b73dec879777</title>
<ellipse fill="#0ee832" stroke="black" cx="229.5" cy="-99.87" rx="106.13" ry="26.74"/>
<text text-anchor="middle" x="229.5" y="-103.67" font-family="Helvetica,sans-Serif" font-size="14.00">✓ Modify</text>
<text text-anchor="middle" x="229.5" y="-88.67" font-family="Helvetica,sans-Serif" font-size="14.00">server_ws_pkl&#45;1.py</text>
</g>
<!-- start&#45;&gt;76786c69&#45;4e26&#45;43df&#45;a961&#45;b73dec879777 -->
<g id="edge8" class="edge">
<title>start&#45;&gt;76786c69&#45;4e26&#45;43df&#45;a961&#45;b73dec879777</title>
<path fill="none" stroke="black" d="M72.2,-99.87C75.72,-99.87 92.04,-99.87 112.93,-99.87"/>
<polygon fill="black" stroke="black" points="113.17,-103.37 123.17,-99.87 113.17,-96.37 113.17,-103.37"/>
<text text-anchor="middle" x="97.72" y="-106.67" font-family="Helvetica,sans-Serif" font-size="14.00">Start</text>
</g>
<!-- end -->
<g id="node2" class="node">
<title>end</title>
</g>
<!-- a1729470&#45;5eab&#45;4fa5&#45;a895&#45;cf1bbd44ff27 -->
<g id="node4" class="node">
<title>a1729470&#45;5eab&#45;4fa5&#45;a895&#45;cf1bbd44ff27</title>
<ellipse fill="#0ee832" stroke="black" cx="525.5" cy="-99.87" rx="96.33" ry="26.74"/>
<text text-anchor="middle" x="525.5" y="-103.67" font-family="Helvetica,sans-Serif" font-size="14.00">✓ Modify</text>
<text text-anchor="middle" x="525.5" y="-88.67" font-family="Helvetica,sans-Serif" font-size="14.00">server_ws_pkl.py</text>
</g>
<!-- 76786c69&#45;4e26&#45;43df&#45;a961&#45;b73dec879777&#45;&gt;a1729470&#45;5eab&#45;4fa5&#45;a895&#45;cf1bbd44ff27 -->
<g id="edge2" class="edge">
<title>76786c69&#45;4e26&#45;43df&#45;a961&#45;b73dec879777&#45;&gt;a1729470&#45;5eab&#45;4fa5&#45;a895&#45;cf1bbd44ff27</title>
<path fill="none" stroke="black" d="M335.59,-99.87C363.34,-99.87 391.09,-99.87 418.84,-99.87"/>
<polygon fill="black" stroke="black" points="419.06,-103.37 429.06,-99.87 419.06,-96.37 419.06,-103.37"/>
</g>
<!-- 06463057&#45;fcf7&#45;4d45&#45;8ed9&#45;df09f5c4f5ce -->
<g id="node7" class="node">
<title>06463057&#45;fcf7&#45;4d45&#45;8ed9&#45;df09f5c4f5ce</title>
<polygon fill="#0ee832" stroke="black" points="343,-36 0,-36 0,0 343,0 343,-36"/>
<text text-anchor="middle" x="171.5" y="-14.3" font-family="Helvetica,sans-Serif" font-size="14.00">✓ Run GitHub Actions for `server_ws_pkl&#45;1.py`</text>
</g>
<!-- 76786c69&#45;4e26&#45;43df&#45;a961&#45;b73dec879777&#45;&gt;06463057&#45;fcf7&#45;4d45&#45;8ed9&#45;df09f5c4f5ce -->
<g id="edge1" class="edge">
<title>76786c69&#45;4e26&#45;43df&#45;a961&#45;b73dec879777&#45;&gt;06463057&#45;fcf7&#45;4d45&#45;8ed9&#45;df09f5c4f5ce</title>
<path fill="none" stroke="black" stroke-dasharray="5,2" d="M210.83,-73.16C204.2,-64.04 196.75,-53.77 190.13,-44.65"/>
<polygon fill="black" stroke="black" points="192.8,-42.37 184.09,-36.34 187.13,-46.48 192.8,-42.37"/>
</g>
<!-- 0f61db0a&#45;b6c4&#45;40c1&#45;a389&#45;8cea60d613e9 -->
<g id="node5" class="node">
<title>0f61db0a&#45;b6c4&#45;40c1&#45;a389&#45;8cea60d613e9</title>
<ellipse fill="#0ee832" stroke="black" cx="845.5" cy="-99.87" rx="57.05" ry="26.74"/>
<text text-anchor="middle" x="845.5" y="-103.67" font-family="Helvetica,sans-Serif" font-size="14.00">✓ Modify</text>
<text text-anchor="middle" x="845.5" y="-88.67" font-family="Helvetica,sans-Serif" font-size="14.00">server.py</text>
</g>
<!-- a1729470&#45;5eab&#45;4fa5&#45;a895&#45;cf1bbd44ff27&#45;&gt;0f61db0a&#45;b6c4&#45;40c1&#45;a389&#45;8cea60d613e9 -->
<g id="edge4" class="edge">
<title>a1729470&#45;5eab&#45;4fa5&#45;a895&#45;cf1bbd44ff27&#45;&gt;0f61db0a&#45;b6c4&#45;40c1&#45;a389&#45;8cea60d613e9</title>
<path fill="none" stroke="black" d="M621.75,-99.87C673.75,-99.87 725.76,-99.87 777.76,-99.87"/>
<polygon fill="black" stroke="black" points="777.81,-103.37 787.81,-99.87 777.81,-96.37 777.81,-103.37"/>
</g>
<!-- c5c7976d&#45;8b60&#45;452a&#45;a35f&#45;eaa35f40122f -->
<g id="node8" class="node">
<title>c5c7976d&#45;8b60&#45;452a&#45;a35f&#45;eaa35f40122f</title>
<polygon fill="#0ee832" stroke="black" points="690,-36 361,-36 361,0 690,0 690,-36"/>
<text text-anchor="middle" x="525.5" y="-14.3" font-family="Helvetica,sans-Serif" font-size="14.00">✓ Run GitHub Actions for `server_ws_pkl.py`</text>
</g>
<!-- a1729470&#45;5eab&#45;4fa5&#45;a895&#45;cf1bbd44ff27&#45;&gt;c5c7976d&#45;8b60&#45;452a&#45;a35f&#45;eaa35f40122f -->
<g id="edge3" class="edge">
<title>a1729470&#45;5eab&#45;4fa5&#45;a895&#45;cf1bbd44ff27&#45;&gt;c5c7976d&#45;8b60&#45;452a&#45;a35f&#45;eaa35f40122f</title>
<path fill="none" stroke="black" stroke-dasharray="5,2" d="M525.5,-72.72C525.5,-64.27 525.5,-54.89 525.5,-46.36"/>
<polygon fill="black" stroke="black" points="529,-46.15 525.5,-36.15 522,-46.15 529,-46.15"/>
</g>
<!-- 9fbbc307&#45;7fd3&#45;4161&#45;8aa3&#45;6e60c0e1e6dd -->
<g id="node6" class="node">
<title>9fbbc307&#45;7fd3&#45;4161&#45;8aa3&#45;6e60c0e1e6dd</title>
<ellipse fill="#0ee832" stroke="black" cx="1083.5" cy="-99.87" rx="76.24" ry="26.74"/>
<text text-anchor="middle" x="1083.5" y="-103.67" font-family="Helvetica,sans-Serif" font-size="14.00">✓ Modify</text>
<text text-anchor="middle" x="1083.5" y="-88.67" font-family="Helvetica,sans-Serif" font-size="14.00">server_ws.py</text>
</g>
<!-- 0f61db0a&#45;b6c4&#45;40c1&#45;a389&#45;8cea60d613e9&#45;&gt;9fbbc307&#45;7fd3&#45;4161&#45;8aa3&#45;6e60c0e1e6dd -->
<g id="edge6" class="edge">
<title>0f61db0a&#45;b6c4&#45;40c1&#45;a389&#45;8cea60d613e9&#45;&gt;9fbbc307&#45;7fd3&#45;4161&#45;8aa3&#45;6e60c0e1e6dd</title>
<path fill="none" stroke="black" d="M903.14,-99.87C934.4,-99.87 965.65,-99.87 996.91,-99.87"/>
<polygon fill="black" stroke="black" points="997.06,-103.37 1007.06,-99.87 997.06,-96.37 997.06,-103.37"/>
</g>
<!-- 28778918&#45;cd9b&#45;4c50&#45;900b&#45;df9e1a679923 -->
<g id="node9" class="node">
<title>28778918&#45;cd9b&#45;4c50&#45;900b&#45;df9e1a679923</title>
<polygon fill="#0ee832" stroke="black" points="982.5,-36 708.5,-36 708.5,0 982.5,0 982.5,-36"/>
<text text-anchor="middle" x="845.5" y="-14.3" font-family="Helvetica,sans-Serif" font-size="14.00">✓ Run GitHub Actions for `server.py`</text>
</g>
<!-- 0f61db0a&#45;b6c4&#45;40c1&#45;a389&#45;8cea60d613e9&#45;&gt;28778918&#45;cd9b&#45;4c50&#45;900b&#45;df9e1a679923 -->
<g id="edge5" class="edge">
<title>0f61db0a&#45;b6c4&#45;40c1&#45;a389&#45;8cea60d613e9&#45;&gt;28778918&#45;cd9b&#45;4c50&#45;900b&#45;df9e1a679923</title>
<path fill="none" stroke="black" stroke-dasharray="5,2" d="M845.5,-72.72C845.5,-64.27 845.5,-54.89 845.5,-46.36"/>
<polygon fill="black" stroke="black" points="849,-46.15 845.5,-36.15 842,-46.15 849,-46.15"/>
</g>
<!-- 9fbbc307&#45;7fd3&#45;4161&#45;8aa3&#45;6e60c0e1e6dd&#45;&gt;end -->
<g id="edge9" class="edge">
<title>9fbbc307&#45;7fd3&#45;4161&#45;8aa3&#45;6e60c0e1e6dd&#45;&gt;end</title>
<path fill="none" stroke="black" d="M1159.89,-99.87C1178.43,-99.87 1195.99,-99.87 1206.74,-99.87"/>
<polygon fill="black" stroke="black" points="1206.8,-103.37 1216.8,-99.87 1206.8,-96.37 1206.8,-103.37"/>
<text text-anchor="middle" x="1188.43" y="-106.67" font-family="Helvetica,sans-Serif" font-size="14.00">Finish</text>
</g>
<!-- d0f50b4f&#45;707f&#45;4d16&#45;aa27&#45;13aa32b1bf4a -->
<g id="node10" class="node">
<title>d0f50b4f&#45;707f&#45;4d16&#45;aa27&#45;13aa32b1bf4a</title>
<polygon fill="yellow" stroke="black" points="1304,-36 1001,-36 1001,0 1304,0 1304,-36"/>
<text text-anchor="middle" x="1152.5" y="-14.3" font-family="Helvetica,sans-Serif" font-size="14.00">⋯ Run GitHub Actions for `server_ws.py`</text>
</g>
<!-- 9fbbc307&#45;7fd3&#45;4161&#45;8aa3&#45;6e60c0e1e6dd&#45;&gt;d0f50b4f&#45;707f&#45;4d16&#45;aa27&#45;13aa32b1bf4a -->
<g id="edge7" class="edge">
<title>9fbbc307&#45;7fd3&#45;4161&#45;8aa3&#45;6e60c0e1e6dd&#45;&gt;d0f50b4f&#45;707f&#45;4d16&#45;aa27&#45;13aa32b1bf4a</title>
<path fill="none" stroke="black" stroke-dasharray="5,2" d="M1104.95,-74.04C1113.24,-64.45 1122.7,-53.5 1130.99,-43.9"/>
<polygon fill="black" stroke="black" points="1133.73,-46.08 1137.62,-36.22 1128.44,-41.5 1133.73,-46.08"/>
</g>
</g>
</svg>
