<?xml version="1.0" encoding="UTF-8" standalone="no"?>
<!DOCTYPE svg PUBLIC "-//W3C//DTD SVG 1.1//EN"
 "http://www.w3.org/Graphics/SVG/1.1/DTD/svg11.dtd">
<!-- Generated by graphviz version 2.43.0 (0)
 -->
<!-- Title: %3 Pages: 1 -->
<svg width="1370pt" height="238pt"
 viewBox="0.00 0.00 1370.00 237.74" xmlns="http://www.w3.org/2000/svg" xmlns:xlink="http://www.w3.org/1999/xlink">
<g id="graph0" class="graph" transform="scale(1 1) rotate(0) translate(36 201.74)">
<title>%3</title>
<polygon fill="dimgray" stroke="transparent" points="-36,36 -36,-201.74 1334,-201.74 1334,36 -36,36"/>
<text text-anchor="middle" x="649" y="-150.54" font-family="Helvetica,sans-Serif" font-size="14.00">Sweep&#39;s Plan &amp; Progress</text>
<!-- start -->
<g id="node1" class="node">
<title>start</title>
</g>
<!-- 76786c69&#45;4e26&#45;43df&#45;a961&#45;b73dec879777 -->
<g id="node3" class="node">
<title>76786c69&#45;4e26&#45;43df&#45;a961&#45;b73dec879777</title>
<ellipse fill="#0ee832" stroke="black" cx="230.5" cy="-99.87" rx="106.13" ry="26.74"/>
<text text-anchor="middle" x="230.5" y="-103.67" font-family="Helvetica,sans-Serif" font-size="14.00">✓ Modify</text>
<text text-anchor="middle" x="230.5" y="-88.67" font-family="Helvetica,sans-Serif" font-size="14.00">server_ws_pkl&#45;1.py</text>
</g>
<!-- start&#45;&gt;76786c69&#45;4e26&#45;43df&#45;a961&#45;b73dec879777 -->
<g id="edge8" class="edge">
<title>start&#45;&gt;76786c69&#45;4e26&#45;43df&#45;a961&#45;b73dec879777</title>
<path fill="none" stroke="black" d="M73.2,-99.87C76.72,-99.87 93.04,-99.87 113.93,-99.87"/>
<polygon fill="black" stroke="black" points="114.17,-103.37 124.17,-99.87 114.17,-96.37 114.17,-103.37"/>
<text text-anchor="middle" x="98.72" y="-106.67" font-family="Helvetica,sans-Serif" font-size="14.00">Start</text>
</g>
<!-- end -->
<g id="node2" class="node">
<title>end</title>
</g>
<!-- a1729470&#45;5eab&#45;4fa5&#45;a895&#45;cf1bbd44ff27 -->
<g id="node4" class="node">
<title>a1729470&#45;5eab&#45;4fa5&#45;a895&#45;cf1bbd44ff27</title>
<ellipse fill="white" stroke="black" cx="526.5" cy="-99.87" rx="96.33" ry="26.74"/>
<text text-anchor="middle" x="526.5" y="-103.67" font-family="Helvetica,sans-Serif" font-size="14.00">▶ Modify</text>
<text text-anchor="middle" x="526.5" y="-88.67" font-family="Helvetica,sans-Serif" font-size="14.00">server_ws_pkl.py</text>
</g>
<!-- 76786c69&#45;4e26&#45;43df&#45;a961&#45;b73dec879777&#45;&gt;a1729470&#45;5eab&#45;4fa5&#45;a895&#45;cf1bbd44ff27 -->
<g id="edge2" class="edge">
<title>76786c69&#45;4e26&#45;43df&#45;a961&#45;b73dec879777&#45;&gt;a1729470&#45;5eab&#45;4fa5&#45;a895&#45;cf1bbd44ff27</title>
<path fill="none" stroke="black" d="M336.59,-99.87C364.34,-99.87 392.09,-99.87 419.84,-99.87"/>
<polygon fill="black" stroke="black" points="420.06,-103.37 430.06,-99.87 420.06,-96.37 420.06,-103.37"/>
</g>
<!-- 06463057&#45;fcf7&#45;4d45&#45;8ed9&#45;df09f5c4f5ce -->
<g id="node7" class="node">
<title>06463057&#45;fcf7&#45;4d45&#45;8ed9&#45;df09f5c4f5ce</title>
<polygon fill="yellow" stroke="black" points="345,-36 0,-36 0,0 345,0 345,-36"/>
<text text-anchor="middle" x="172.5" y="-14.3" font-family="Helvetica,sans-Serif" font-size="14.00">⋯ Run GitHub Actions for `server_ws_pkl&#45;1.py`</text>
</g>
<!-- 76786c69&#45;4e26&#45;43df&#45;a961&#45;b73dec879777&#45;&gt;06463057&#45;fcf7&#45;4d45&#45;8ed9&#45;df09f5c4f5ce -->
<g id="edge1" class="edge">
<title>76786c69&#45;4e26&#45;43df&#45;a961&#45;b73dec879777&#45;&gt;06463057&#45;fcf7&#45;4d45&#45;8ed9&#45;df09f5c4f5ce</title>
<path fill="none" stroke="black" stroke-dasharray="5,2" d="M211.83,-73.16C205.2,-64.04 197.75,-53.77 191.13,-44.65"/>
<polygon fill="black" stroke="black" points="193.8,-42.37 185.09,-36.34 188.13,-46.48 193.8,-42.37"/>
</g>
<!-- 0f61db0a&#45;b6c4&#45;40c1&#45;a389&#45;8cea60d613e9 -->
<g id="node5" class="node">
<title>0f61db0a&#45;b6c4&#45;40c1&#45;a389&#45;8cea60d613e9</title>
<ellipse fill="white" stroke="black" cx="844.5" cy="-99.87" rx="57.05" ry="26.74"/>
<text text-anchor="middle" x="844.5" y="-103.67" font-family="Helvetica,sans-Serif" font-size="14.00">▶ Modify</text>
<text text-anchor="middle" x="844.5" y="-88.67" font-family="Helvetica,sans-Serif" font-size="14.00">server.py</text>
</g>
<!-- a1729470&#45;5eab&#45;4fa5&#45;a895&#45;cf1bbd44ff27&#45;&gt;0f61db0a&#45;b6c4&#45;40c1&#45;a389&#45;8cea60d613e9 -->
<g id="edge4" class="edge">
<title>a1729470&#45;5eab&#45;4fa5&#45;a895&#45;cf1bbd44ff27&#45;&gt;0f61db0a&#45;b6c4&#45;40c1&#45;a389&#45;8cea60d613e9</title>
<path fill="none" stroke="black" d="M622.77,-99.87C674.06,-99.87 725.35,-99.87 776.64,-99.87"/>
<polygon fill="black" stroke="black" points="776.9,-103.37 786.9,-99.87 776.9,-96.37 776.9,-103.37"/>
</g>
<!-- c5c7976d&#45;8b60&#45;452a&#45;a35f&#45;eaa35f40122f -->
<g id="node8" class="node">
<title>c5c7976d&#45;8b60&#45;452a&#45;a35f&#45;eaa35f40122f</title>
<polygon fill="white" stroke="black" points="690,-36 363,-36 363,0 690,0 690,-36"/>
<text text-anchor="middle" x="526.5" y="-14.3" font-family="Helvetica,sans-Serif" font-size="14.00">▶ Run GitHub Actions for `server_ws_pkl.py`</text>
</g>
<!-- a1729470&#45;5eab&#45;4fa5&#45;a895&#45;cf1bbd44ff27&#45;&gt;c5c7976d&#45;8b60&#45;452a&#45;a35f&#45;eaa35f40122f -->
<g id="edge3" class="edge">
<title>a1729470&#45;5eab&#45;4fa5&#45;a895&#45;cf1bbd44ff27&#45;&gt;c5c7976d&#45;8b60&#45;452a&#45;a35f&#45;eaa35f40122f</title>
<path fill="none" stroke="black" stroke-dasharray="5,2" d="M526.5,-72.72C526.5,-64.27 526.5,-54.89 526.5,-46.36"/>
<polygon fill="black" stroke="black" points="530,-46.15 526.5,-36.15 523,-46.15 530,-46.15"/>
</g>
<!-- 9fbbc307&#45;7fd3&#45;4161&#45;8aa3&#45;6e60c0e1e6dd -->
<g id="node6" class="node">
<title>9fbbc307&#45;7fd3&#45;4161&#45;8aa3&#45;6e60c0e1e6dd</title>
<ellipse fill="white" stroke="black" cx="1081.5" cy="-99.87" rx="76.24" ry="26.74"/>
<text text-anchor="middle" x="1081.5" y="-103.67" font-family="Helvetica,sans-Serif" font-size="14.00">▶ Modify</text>
<text text-anchor="middle" x="1081.5" y="-88.67" font-family="Helvetica,sans-Serif" font-size="14.00">server_ws.py</text>
</g>
<!-- 0f61db0a&#45;b6c4&#45;40c1&#45;a389&#45;8cea60d613e9&#45;&gt;9fbbc307&#45;7fd3&#45;4161&#45;8aa3&#45;6e60c0e1e6dd -->
<g id="edge6" class="edge">
<title>0f61db0a&#45;b6c4&#45;40c1&#45;a389&#45;8cea60d613e9&#45;&gt;9fbbc307&#45;7fd3&#45;4161&#45;8aa3&#45;6e60c0e1e6dd</title>
<path fill="none" stroke="black" d="M901.9,-99.87C932.92,-99.87 963.94,-99.87 994.96,-99.87"/>
<polygon fill="black" stroke="black" points="995.03,-103.37 1005.03,-99.87 995.03,-96.37 995.03,-103.37"/>
</g>
<!-- 28778918&#45;cd9b&#45;4c50&#45;900b&#45;df9e1a679923 -->
<g id="node9" class="node">
<title>28778918&#45;cd9b&#45;4c50&#45;900b&#45;df9e1a679923</title>
<polygon fill="white" stroke="black" points="980.5,-36 708.5,-36 708.5,0 980.5,0 980.5,-36"/>
<text text-anchor="middle" x="844.5" y="-14.3" font-family="Helvetica,sans-Serif" font-size="14.00">▶ Run GitHub Actions for `server.py`</text>
</g>
<!-- 0f61db0a&#45;b6c4&#45;40c1&#45;a389&#45;8cea60d613e9&#45;&gt;28778918&#45;cd9b&#45;4c50&#45;900b&#45;df9e1a679923 -->
<g id="edge5" class="edge">
<title>0f61db0a&#45;b6c4&#45;40c1&#45;a389&#45;8cea60d613e9&#45;&gt;28778918&#45;cd9b&#45;4c50&#45;900b&#45;df9e1a679923</title>
<path fill="none" stroke="black" stroke-dasharray="5,2" d="M844.5,-72.72C844.5,-64.27 844.5,-54.89 844.5,-46.36"/>
<polygon fill="black" stroke="black" points="848,-46.15 844.5,-36.15 841,-46.15 848,-46.15"/>
</g>
<!-- 9fbbc307&#45;7fd3&#45;4161&#45;8aa3&#45;6e60c0e1e6dd&#45;&gt;end -->
<g id="edge9" class="edge">
<title>9fbbc307&#45;7fd3&#45;4161&#45;8aa3&#45;6e60c0e1e6dd&#45;&gt;end</title>
<path fill="none" stroke="black" d="M1157.89,-99.87C1176.43,-99.87 1193.99,-99.87 1204.74,-99.87"/>
<polygon fill="black" stroke="black" points="1204.8,-103.37 1214.8,-99.87 1204.8,-96.37 1204.8,-103.37"/>
<text text-anchor="middle" x="1186.43" y="-106.67" font-family="Helvetica,sans-Serif" font-size="14.00">Finish</text>
</g>
<!-- d0f50b4f&#45;707f&#45;4d16&#45;aa27&#45;13aa32b1bf4a -->
<g id="node10" class="node">
<title>d0f50b4f&#45;707f&#45;4d16&#45;aa27&#45;13aa32b1bf4a</title>
<polygon fill="white" stroke="black" points="1298,-36 999,-36 999,0 1298,0 1298,-36"/>
<text text-anchor="middle" x="1148.5" y="-14.3" font-family="Helvetica,sans-Serif" font-size="14.00">▶ Run GitHub Actions for `server_ws.py`</text>
</g>
<!-- 9fbbc307&#45;7fd3&#45;4161&#45;8aa3&#45;6e60c0e1e6dd&#45;&gt;d0f50b4f&#45;707f&#45;4d16&#45;aa27&#45;13aa32b1bf4a -->
<g id="edge7" class="edge">
<title>9fbbc307&#45;7fd3&#45;4161&#45;8aa3&#45;6e60c0e1e6dd&#45;&gt;d0f50b4f&#45;707f&#45;4d16&#45;aa27&#45;13aa32b1bf4a</title>
<path fill="none" stroke="black" stroke-dasharray="5,2" d="M1102.7,-73.6C1110.65,-64.13 1119.66,-53.37 1127.59,-43.93"/>
<polygon fill="black" stroke="black" points="1130.46,-45.95 1134.21,-36.04 1125.1,-41.45 1130.46,-45.95"/>
</g>
</g>
</svg>
