<?xml version="1.0" encoding="UTF-8" standalone="no"?>
<!DOCTYPE svg PUBLIC "-//W3C//DTD SVG 1.1//EN"
 "http://www.w3.org/Graphics/SVG/1.1/DTD/svg11.dtd">
<!-- Generated by graphviz version 2.43.0 (0)
 -->
<!-- Title: %3 Pages: 1 -->
<svg width="1366pt" height="238pt"
 viewBox="0.00 0.00 1366.00 237.74" xmlns="http://www.w3.org/2000/svg" xmlns:xlink="http://www.w3.org/1999/xlink">
<g id="graph0" class="graph" transform="scale(1 1) rotate(0) translate(36 201.74)">
<title>%3</title>
<polygon fill="dimgray" stroke="transparent" points="-36,36 -36,-201.74 1330,-201.74 1330,36 -36,36"/>
<text text-anchor="middle" x="647" y="-150.54" font-family="Helvetica,sans-Serif" font-size="14.00">Sweep&#39;s Plan &amp; Progress</text>
<!-- start -->
<g id="node1" class="node">
<title>start</title>
</g>
<!-- 76786c69&#45;4e26&#45;43df&#45;a961&#45;b73dec879777 -->
<g id="node3" class="node">
<title>76786c69&#45;4e26&#45;43df&#45;a961&#45;b73dec879777</title>
<ellipse fill="yellow" stroke="black" cx="227.5" cy="-99.87" rx="106.13" ry="26.74"/>
<text text-anchor="middle" x="227.5" y="-103.67" font-family="Helvetica,sans-Serif" font-size="14.00">⋯ Modify</text>
<text text-anchor="middle" x="227.5" y="-88.67" font-family="Helvetica,sans-Serif" font-size="14.00">server_ws_pkl&#45;1.py</text>
</g>
<!-- start&#45;&gt;76786c69&#45;4e26&#45;43df&#45;a961&#45;b73dec879777 -->
<g id="edge8" class="edge">
<title>start&#45;&gt;76786c69&#45;4e26&#45;43df&#45;a961&#45;b73dec879777</title>
<path fill="none" stroke="black" d="M70.2,-99.87C73.72,-99.87 90.04,-99.87 110.93,-99.87"/>
<polygon fill="black" stroke="black" points="111.17,-103.37 121.17,-99.87 111.17,-96.37 111.17,-103.37"/>
<text text-anchor="middle" x="95.72" y="-106.67" font-family="Helvetica,sans-Serif" font-size="14.00">Start</text>
</g>
<!-- end -->
<g id="node2" class="node">
<title>end</title>
</g>
<!-- a1729470&#45;5eab&#45;4fa5&#45;a895&#45;cf1bbd44ff27 -->
<g id="node4" class="node">
<title>a1729470&#45;5eab&#45;4fa5&#45;a895&#45;cf1bbd44ff27</title>
<ellipse fill="white" stroke="black" cx="522.5" cy="-99.87" rx="96.33" ry="26.74"/>
<text text-anchor="middle" x="522.5" y="-103.67" font-family="Helvetica,sans-Serif" font-size="14.00">▶ Modify</text>
<text text-anchor="middle" x="522.5" y="-88.67" font-family="Helvetica,sans-Serif" font-size="14.00">server_ws_pkl.py</text>
</g>
<!-- 76786c69&#45;4e26&#45;43df&#45;a961&#45;b73dec879777&#45;&gt;a1729470&#45;5eab&#45;4fa5&#45;a895&#45;cf1bbd44ff27 -->
<g id="edge2" class="edge">
<title>76786c69&#45;4e26&#45;43df&#45;a961&#45;b73dec879777&#45;&gt;a1729470&#45;5eab&#45;4fa5&#45;a895&#45;cf1bbd44ff27</title>
<path fill="none" stroke="black" d="M333.8,-99.87C361.27,-99.87 388.73,-99.87 416.19,-99.87"/>
<polygon fill="black" stroke="black" points="416.31,-103.37 426.31,-99.87 416.31,-96.37 416.31,-103.37"/>
</g>
<!-- 06463057&#45;fcf7&#45;4d45&#45;8ed9&#45;df09f5c4f5ce -->
<g id="node7" class="node">
<title>06463057&#45;fcf7&#45;4d45&#45;8ed9&#45;df09f5c4f5ce</title>
<polygon fill="white" stroke="black" points="341,-36 0,-36 0,0 341,0 341,-36"/>
<text text-anchor="middle" x="170.5" y="-14.3" font-family="Helvetica,sans-Serif" font-size="14.00">▶ Run GitHub Actions for `server_ws_pkl&#45;1.py`</text>
</g>
<!-- 76786c69&#45;4e26&#45;43df&#45;a961&#45;b73dec879777&#45;&gt;06463057&#45;fcf7&#45;4d45&#45;8ed9&#45;df09f5c4f5ce -->
<g id="edge1" class="edge">
<title>76786c69&#45;4e26&#45;43df&#45;a961&#45;b73dec879777&#45;&gt;06463057&#45;fcf7&#45;4d45&#45;8ed9&#45;df09f5c4f5ce</title>
<path fill="none" stroke="black" stroke-dasharray="5,2" d="M209.15,-73.16C202.64,-64.04 195.32,-53.77 188.81,-44.65"/>
<polygon fill="black" stroke="black" points="191.53,-42.44 182.87,-36.34 185.83,-46.51 191.53,-42.44"/>
</g>
<!-- 0f61db0a&#45;b6c4&#45;40c1&#45;a389&#45;8cea60d613e9 -->
<g id="node5" class="node">
<title>0f61db0a&#45;b6c4&#45;40c1&#45;a389&#45;8cea60d613e9</title>
<ellipse fill="white" stroke="black" cx="840.5" cy="-99.87" rx="57.05" ry="26.74"/>
<text text-anchor="middle" x="840.5" y="-103.67" font-family="Helvetica,sans-Serif" font-size="14.00">▶ Modify</text>
<text text-anchor="middle" x="840.5" y="-88.67" font-family="Helvetica,sans-Serif" font-size="14.00">server.py</text>
</g>
<!-- a1729470&#45;5eab&#45;4fa5&#45;a895&#45;cf1bbd44ff27&#45;&gt;0f61db0a&#45;b6c4&#45;40c1&#45;a389&#45;8cea60d613e9 -->
<g id="edge4" class="edge">
<title>a1729470&#45;5eab&#45;4fa5&#45;a895&#45;cf1bbd44ff27&#45;&gt;0f61db0a&#45;b6c4&#45;40c1&#45;a389&#45;8cea60d613e9</title>
<path fill="none" stroke="black" d="M618.77,-99.87C670.06,-99.87 721.35,-99.87 772.64,-99.87"/>
<polygon fill="black" stroke="black" points="772.9,-103.37 782.9,-99.87 772.9,-96.37 772.9,-103.37"/>
</g>
<!-- c5c7976d&#45;8b60&#45;452a&#45;a35f&#45;eaa35f40122f -->
<g id="node8" class="node">
<title>c5c7976d&#45;8b60&#45;452a&#45;a35f&#45;eaa35f40122f</title>
<polygon fill="white" stroke="black" points="686,-36 359,-36 359,0 686,0 686,-36"/>
<text text-anchor="middle" x="522.5" y="-14.3" font-family="Helvetica,sans-Serif" font-size="14.00">▶ Run GitHub Actions for `server_ws_pkl.py`</text>
</g>
<!-- a1729470&#45;5eab&#45;4fa5&#45;a895&#45;cf1bbd44ff27&#45;&gt;c5c7976d&#45;8b60&#45;452a&#45;a35f&#45;eaa35f40122f -->
<g id="edge3" class="edge">
<title>a1729470&#45;5eab&#45;4fa5&#45;a895&#45;cf1bbd44ff27&#45;&gt;c5c7976d&#45;8b60&#45;452a&#45;a35f&#45;eaa35f40122f</title>
<path fill="none" stroke="black" stroke-dasharray="5,2" d="M522.5,-72.72C522.5,-64.27 522.5,-54.89 522.5,-46.36"/>
<polygon fill="black" stroke="black" points="526,-46.15 522.5,-36.15 519,-46.15 526,-46.15"/>
</g>
<!-- 9fbbc307&#45;7fd3&#45;4161&#45;8aa3&#45;6e60c0e1e6dd -->
<g id="node6" class="node">
<title>9fbbc307&#45;7fd3&#45;4161&#45;8aa3&#45;6e60c0e1e6dd</title>
<ellipse fill="white" stroke="black" cx="1077.5" cy="-99.87" rx="76.24" ry="26.74"/>
<text text-anchor="middle" x="1077.5" y="-103.67" font-family="Helvetica,sans-Serif" font-size="14.00">▶ Modify</text>
<text text-anchor="middle" x="1077.5" y="-88.67" font-family="Helvetica,sans-Serif" font-size="14.00">server_ws.py</text>
</g>
<!-- 0f61db0a&#45;b6c4&#45;40c1&#45;a389&#45;8cea60d613e9&#45;&gt;9fbbc307&#45;7fd3&#45;4161&#45;8aa3&#45;6e60c0e1e6dd -->
<g id="edge6" class="edge">
<title>0f61db0a&#45;b6c4&#45;40c1&#45;a389&#45;8cea60d613e9&#45;&gt;9fbbc307&#45;7fd3&#45;4161&#45;8aa3&#45;6e60c0e1e6dd</title>
<path fill="none" stroke="black" d="M897.9,-99.87C928.92,-99.87 959.94,-99.87 990.96,-99.87"/>
<polygon fill="black" stroke="black" points="991.03,-103.37 1001.03,-99.87 991.03,-96.37 991.03,-103.37"/>
</g>
<!-- 28778918&#45;cd9b&#45;4c50&#45;900b&#45;df9e1a679923 -->
<g id="node9" class="node">
<title>28778918&#45;cd9b&#45;4c50&#45;900b&#45;df9e1a679923</title>
<polygon fill="white" stroke="black" points="976.5,-36 704.5,-36 704.5,0 976.5,0 976.5,-36"/>
<text text-anchor="middle" x="840.5" y="-14.3" font-family="Helvetica,sans-Serif" font-size="14.00">▶ Run GitHub Actions for `server.py`</text>
</g>
<!-- 0f61db0a&#45;b6c4&#45;40c1&#45;a389&#45;8cea60d613e9&#45;&gt;28778918&#45;cd9b&#45;4c50&#45;900b&#45;df9e1a679923 -->
<g id="edge5" class="edge">
<title>0f61db0a&#45;b6c4&#45;40c1&#45;a389&#45;8cea60d613e9&#45;&gt;28778918&#45;cd9b&#45;4c50&#45;900b&#45;df9e1a679923</title>
<path fill="none" stroke="black" stroke-dasharray="5,2" d="M840.5,-72.72C840.5,-64.27 840.5,-54.89 840.5,-46.36"/>
<polygon fill="black" stroke="black" points="844,-46.15 840.5,-36.15 837,-46.15 844,-46.15"/>
</g>
<!-- 9fbbc307&#45;7fd3&#45;4161&#45;8aa3&#45;6e60c0e1e6dd&#45;&gt;end -->
<g id="edge9" class="edge">
<title>9fbbc307&#45;7fd3&#45;4161&#45;8aa3&#45;6e60c0e1e6dd&#45;&gt;end</title>
<path fill="none" stroke="black" d="M1153.89,-99.87C1172.43,-99.87 1189.99,-99.87 1200.74,-99.87"/>
<polygon fill="black" stroke="black" points="1200.8,-103.37 1210.8,-99.87 1200.8,-96.37 1200.8,-103.37"/>
<text text-anchor="middle" x="1182.43" y="-106.67" font-family="Helvetica,sans-Serif" font-size="14.00">Finish</text>
</g>
<!-- d0f50b4f&#45;707f&#45;4d16&#45;aa27&#45;13aa32b1bf4a -->
<g id="node10" class="node">
<title>d0f50b4f&#45;707f&#45;4d16&#45;aa27&#45;13aa32b1bf4a</title>
<polygon fill="white" stroke="black" points="1294,-36 995,-36 995,0 1294,0 1294,-36"/>
<text text-anchor="middle" x="1144.5" y="-14.3" font-family="Helvetica,sans-Serif" font-size="14.00">▶ Run GitHub Actions for `server_ws.py`</text>
</g>
<!-- 9fbbc307&#45;7fd3&#45;4161&#45;8aa3&#45;6e60c0e1e6dd&#45;&gt;d0f50b4f&#45;707f&#45;4d16&#45;aa27&#45;13aa32b1bf4a -->
<g id="edge7" class="edge">
<title>9fbbc307&#45;7fd3&#45;4161&#45;8aa3&#45;6e60c0e1e6dd&#45;&gt;d0f50b4f&#45;707f&#45;4d16&#45;aa27&#45;13aa32b1bf4a</title>
<path fill="none" stroke="black" stroke-dasharray="5,2" d="M1098.7,-73.6C1106.65,-64.13 1115.66,-53.37 1123.59,-43.93"/>
<polygon fill="black" stroke="black" points="1126.46,-45.95 1130.21,-36.04 1121.1,-41.45 1126.46,-45.95"/>
</g>
</g>
</svg>
