<?xml version="1.0" encoding="UTF-8" standalone="no"?>
<!DOCTYPE svg PUBLIC "-//W3C//DTD SVG 1.1//EN"
 "http://www.w3.org/Graphics/SVG/1.1/DTD/svg11.dtd">
<!-- Generated by graphviz version 2.43.0 (0)
 -->
<!-- Title: %3 Pages: 1 -->
<svg width="1368pt" height="238pt"
 viewBox="0.00 0.00 1368.00 237.74" xmlns="http://www.w3.org/2000/svg" xmlns:xlink="http://www.w3.org/1999/xlink">
<g id="graph0" class="graph" transform="scale(1 1) rotate(0) translate(36 201.74)">
<title>%3</title>
<polygon fill="dimgray" stroke="transparent" points="-36,36 -36,-201.74 1332,-201.74 1332,36 -36,36"/>
<text text-anchor="middle" x="648" y="-150.54" font-family="Helvetica,sans-Serif" font-size="14.00">Sweep&#39;s Plan &amp; Progress</text>
<!-- start -->
<g id="node1" class="node">
<title>start</title>
</g>
<!-- 76786c69&#45;4e26&#45;43df&#45;a961&#45;b73dec879777 -->
<g id="node3" class="node">
<title>76786c69&#45;4e26&#45;43df&#45;a961&#45;b73dec879777</title>
<ellipse fill="#0ee832" stroke="black" cx="228.5" cy="-99.87" rx="106.13" ry="26.74"/>
<text text-anchor="middle" x="228.5" y="-103.67" font-family="Helvetica,sans-Serif" font-size="14.00">✓ Modify</text>
<text text-anchor="middle" x="228.5" y="-88.67" font-family="Helvetica,sans-Serif" font-size="14.00">server_ws_pkl&#45;1.py</text>
</g>
<!-- start&#45;&gt;76786c69&#45;4e26&#45;43df&#45;a961&#45;b73dec879777 -->
<g id="edge8" class="edge">
<title>start&#45;&gt;76786c69&#45;4e26&#45;43df&#45;a961&#45;b73dec879777</title>
<path fill="none" stroke="black" d="M71.2,-99.87C74.72,-99.87 91.04,-99.87 111.93,-99.87"/>
<polygon fill="black" stroke="black" points="112.17,-103.37 122.17,-99.87 112.17,-96.37 112.17,-103.37"/>
<text text-anchor="middle" x="96.72" y="-106.67" font-family="Helvetica,sans-Serif" font-size="14.00">Start</text>
</g>
<!-- end -->
<g id="node2" class="node">
<title>end</title>
</g>
<!-- a1729470&#45;5eab&#45;4fa5&#45;a895&#45;cf1bbd44ff27 -->
<g id="node4" class="node">
<title>a1729470&#45;5eab&#45;4fa5&#45;a895&#45;cf1bbd44ff27</title>
<ellipse fill="white" stroke="black" cx="524.5" cy="-99.87" rx="96.33" ry="26.74"/>
<text text-anchor="middle" x="524.5" y="-103.67" font-family="Helvetica,sans-Serif" font-size="14.00">▶ Modify</text>
<text text-anchor="middle" x="524.5" y="-88.67" font-family="Helvetica,sans-Serif" font-size="14.00">server_ws_pkl.py</text>
</g>
<!-- 76786c69&#45;4e26&#45;43df&#45;a961&#45;b73dec879777&#45;&gt;a1729470&#45;5eab&#45;4fa5&#45;a895&#45;cf1bbd44ff27 -->
<g id="edge2" class="edge">
<title>76786c69&#45;4e26&#45;43df&#45;a961&#45;b73dec879777&#45;&gt;a1729470&#45;5eab&#45;4fa5&#45;a895&#45;cf1bbd44ff27</title>
<path fill="none" stroke="black" d="M334.59,-99.87C362.34,-99.87 390.09,-99.87 417.84,-99.87"/>
<polygon fill="black" stroke="black" points="418.06,-103.37 428.06,-99.87 418.06,-96.37 418.06,-103.37"/>
</g>
<!-- 06463057&#45;fcf7&#45;4d45&#45;8ed9&#45;df09f5c4f5ce -->
<g id="node7" class="node">
<title>06463057&#45;fcf7&#45;4d45&#45;8ed9&#45;df09f5c4f5ce</title>
<polygon fill="#0ee832" stroke="black" points="343,-36 0,-36 0,0 343,0 343,-36"/>
<text text-anchor="middle" x="171.5" y="-14.3" font-family="Helvetica,sans-Serif" font-size="14.00">✓ Run GitHub Actions for `server_ws_pkl&#45;1.py`</text>
</g>
<!-- 76786c69&#45;4e26&#45;43df&#45;a961&#45;b73dec879777&#45;&gt;06463057&#45;fcf7&#45;4d45&#45;8ed9&#45;df09f5c4f5ce -->
<g id="edge1" class="edge">
<title>76786c69&#45;4e26&#45;43df&#45;a961&#45;b73dec879777&#45;&gt;06463057&#45;fcf7&#45;4d45&#45;8ed9&#45;df09f5c4f5ce</title>
<path fill="none" stroke="black" stroke-dasharray="5,2" d="M210.15,-73.16C203.64,-64.04 196.32,-53.77 189.81,-44.65"/>
<polygon fill="black" stroke="black" points="192.53,-42.44 183.87,-36.34 186.83,-46.51 192.53,-42.44"/>
</g>
<!-- 0f61db0a&#45;b6c4&#45;40c1&#45;a389&#45;8cea60d613e9 -->
<g id="node5" class="node">
<title>0f61db0a&#45;b6c4&#45;40c1&#45;a389&#45;8cea60d613e9</title>
<ellipse fill="white" stroke="black" cx="842.5" cy="-99.87" rx="57.05" ry="26.74"/>
<text text-anchor="middle" x="842.5" y="-103.67" font-family="Helvetica,sans-Serif" font-size="14.00">▶ Modify</text>
<text text-anchor="middle" x="842.5" y="-88.67" font-family="Helvetica,sans-Serif" font-size="14.00">server.py</text>
</g>
<!-- a1729470&#45;5eab&#45;4fa5&#45;a895&#45;cf1bbd44ff27&#45;&gt;0f61db0a&#45;b6c4&#45;40c1&#45;a389&#45;8cea60d613e9 -->
<g id="edge4" class="edge">
<title>a1729470&#45;5eab&#45;4fa5&#45;a895&#45;cf1bbd44ff27&#45;&gt;0f61db0a&#45;b6c4&#45;40c1&#45;a389&#45;8cea60d613e9</title>
<path fill="none" stroke="black" d="M620.77,-99.87C672.06,-99.87 723.35,-99.87 774.64,-99.87"/>
<polygon fill="black" stroke="black" points="774.9,-103.37 784.9,-99.87 774.9,-96.37 774.9,-103.37"/>
</g>
<!-- c5c7976d&#45;8b60&#45;452a&#45;a35f&#45;eaa35f40122f -->
<g id="node8" class="node">
<title>c5c7976d&#45;8b60&#45;452a&#45;a35f&#45;eaa35f40122f</title>
<polygon fill="white" stroke="black" points="688,-36 361,-36 361,0 688,0 688,-36"/>
<text text-anchor="middle" x="524.5" y="-14.3" font-family="Helvetica,sans-Serif" font-size="14.00">▶ Run GitHub Actions for `server_ws_pkl.py`</text>
</g>
<!-- a1729470&#45;5eab&#45;4fa5&#45;a895&#45;cf1bbd44ff27&#45;&gt;c5c7976d&#45;8b60&#45;452a&#45;a35f&#45;eaa35f40122f -->
<g id="edge3" class="edge">
<title>a1729470&#45;5eab&#45;4fa5&#45;a895&#45;cf1bbd44ff27&#45;&gt;c5c7976d&#45;8b60&#45;452a&#45;a35f&#45;eaa35f40122f</title>
<path fill="none" stroke="black" stroke-dasharray="5,2" d="M524.5,-72.72C524.5,-64.27 524.5,-54.89 524.5,-46.36"/>
<polygon fill="black" stroke="black" points="528,-46.15 524.5,-36.15 521,-46.15 528,-46.15"/>
</g>
<!-- 9fbbc307&#45;7fd3&#45;4161&#45;8aa3&#45;6e60c0e1e6dd -->
<g id="node6" class="node">
<title>9fbbc307&#45;7fd3&#45;4161&#45;8aa3&#45;6e60c0e1e6dd</title>
<ellipse fill="white" stroke="black" cx="1079.5" cy="-99.87" rx="76.24" ry="26.74"/>
<text text-anchor="middle" x="1079.5" y="-103.67" font-family="Helvetica,sans-Serif" font-size="14.00">▶ Modify</text>
<text text-anchor="middle" x="1079.5" y="-88.67" font-family="Helvetica,sans-Serif" font-size="14.00">server_ws.py</text>
</g>
<!-- 0f61db0a&#45;b6c4&#45;40c1&#45;a389&#45;8cea60d613e9&#45;&gt;9fbbc307&#45;7fd3&#45;4161&#45;8aa3&#45;6e60c0e1e6dd -->
<g id="edge6" class="edge">
<title>0f61db0a&#45;b6c4&#45;40c1&#45;a389&#45;8cea60d613e9&#45;&gt;9fbbc307&#45;7fd3&#45;4161&#45;8aa3&#45;6e60c0e1e6dd</title>
<path fill="none" stroke="black" d="M899.9,-99.87C930.92,-99.87 961.94,-99.87 992.96,-99.87"/>
<polygon fill="black" stroke="black" points="993.03,-103.37 1003.03,-99.87 993.03,-96.37 993.03,-103.37"/>
</g>
<!-- 28778918&#45;cd9b&#45;4c50&#45;900b&#45;df9e1a679923 -->
<g id="node9" class="node">
<title>28778918&#45;cd9b&#45;4c50&#45;900b&#45;df9e1a679923</title>
<polygon fill="white" stroke="black" points="978.5,-36 706.5,-36 706.5,0 978.5,0 978.5,-36"/>
<text text-anchor="middle" x="842.5" y="-14.3" font-family="Helvetica,sans-Serif" font-size="14.00">▶ Run GitHub Actions for `server.py`</text>
</g>
<!-- 0f61db0a&#45;b6c4&#45;40c1&#45;a389&#45;8cea60d613e9&#45;&gt;28778918&#45;cd9b&#45;4c50&#45;900b&#45;df9e1a679923 -->
<g id="edge5" class="edge">
<title>0f61db0a&#45;b6c4&#45;40c1&#45;a389&#45;8cea60d613e9&#45;&gt;28778918&#45;cd9b&#45;4c50&#45;900b&#45;df9e1a679923</title>
<path fill="none" stroke="black" stroke-dasharray="5,2" d="M842.5,-72.72C842.5,-64.27 842.5,-54.89 842.5,-46.36"/>
<polygon fill="black" stroke="black" points="846,-46.15 842.5,-36.15 839,-46.15 846,-46.15"/>
</g>
<!-- 9fbbc307&#45;7fd3&#45;4161&#45;8aa3&#45;6e60c0e1e6dd&#45;&gt;end -->
<g id="edge9" class="edge">
<title>9fbbc307&#45;7fd3&#45;4161&#45;8aa3&#45;6e60c0e1e6dd&#45;&gt;end</title>
<path fill="none" stroke="black" d="M1155.89,-99.87C1174.43,-99.87 1191.99,-99.87 1202.74,-99.87"/>
<polygon fill="black" stroke="black" points="1202.8,-103.37 1212.8,-99.87 1202.8,-96.37 1202.8,-103.37"/>
<text text-anchor="middle" x="1184.43" y="-106.67" font-family="Helvetica,sans-Serif" font-size="14.00">Finish</text>
</g>
<!-- d0f50b4f&#45;707f&#45;4d16&#45;aa27&#45;13aa32b1bf4a -->
<g id="node10" class="node">
<title>d0f50b4f&#45;707f&#45;4d16&#45;aa27&#45;13aa32b1bf4a</title>
<polygon fill="white" stroke="black" points="1296,-36 997,-36 997,0 1296,0 1296,-36"/>
<text text-anchor="middle" x="1146.5" y="-14.3" font-family="Helvetica,sans-Serif" font-size="14.00">▶ Run GitHub Actions for `server_ws.py`</text>
</g>
<!-- 9fbbc307&#45;7fd3&#45;4161&#45;8aa3&#45;6e60c0e1e6dd&#45;&gt;d0f50b4f&#45;707f&#45;4d16&#45;aa27&#45;13aa32b1bf4a -->
<g id="edge7" class="edge">
<title>9fbbc307&#45;7fd3&#45;4161&#45;8aa3&#45;6e60c0e1e6dd&#45;&gt;d0f50b4f&#45;707f&#45;4d16&#45;aa27&#45;13aa32b1bf4a</title>
<path fill="none" stroke="black" stroke-dasharray="5,2" d="M1100.7,-73.6C1108.65,-64.13 1117.66,-53.37 1125.59,-43.93"/>
<polygon fill="black" stroke="black" points="1128.46,-45.95 1132.21,-36.04 1123.1,-41.45 1128.46,-45.95"/>
</g>
</g>
</svg>
